# xmcd
#
# Track frame offsets:
# 150
# 25328
# 36870
# 48360
# 60076
# 76031
# 89234
# 104252
# 121419
# 148972
# 161489
# 179544
# 191849
# 207417
# 225507
#
# Disc length: 3272 seconds
#
#
# Revision: 0
# Processed by: cddbd v1.4PL0 Copyright (c) Steve Scherf et al.
# Submitted via: FreeRIP 2.52 
#
DISCID=cd0cc60f
DTITLE=Renaud - The very meilleur of Renaud
DYEAR=1900
DGENRE=Blues
TTITLE0=Hexagone
TTITLE1=Société tu m'auras pas
TTITLE2=Laisse béton
TTITLE3=La chanson du loubard
TTITLE4=Ma gonzesse
TTITLE5=Chanson pour Pierrot
TTITLE6=Marche à l'ombre
TTITLE7=Les aventures de Gérard Lambert
TTITLE8=Dans mon HLM
TTITLE9=Viens chez moi j'habites chez une copine
TTITLE10=Banlieue rouge
TTITLE11=Manu
TTITLE12=Le père Noël noir
TTITLE13=Mon beauf
TTITLE14=Dès que le vent soufflera
EXTD=ID3G:   0
EXTT0=
EXTT1=
EXTT2=
EXTT3=
EXTT4=
EXTT5=
EXTT6=
EXTT7=
EXTT8=
EXTT9=
EXTT10=
EXTT11=
EXTT12=
EXTT13=
EXTT14=
PLAYORDER=
